<svg id="Layer_1" data-name="Layer 1" xmlns="http://www.w3.org/2000/svg" xmlns:xlink="http://www.w3.org/1999/xlink" viewBox="0 0 16.0083 13.2383"><defs><linearGradient id="linear-gradient" x1="17.0039" y1="-8.996" x2="32.9935" y2="-8.996" gradientTransform="matrix(1, 0, 0, -1, -17.0052, -2.3848)" gradientUnits="userSpaceOnUse"><stop offset="0.0032" stop-color="#b4e3fa"/><stop offset="0.5" stop-color="#e7e2fd"/><stop offset="1" stop-color="#e5f2e8"/></linearGradient></defs><title>LOGO_REELT_7</title><path d="M12.9412,1.362h-.312l-.006-.0006H10.5961A3.0441,3.0441,0,0,0,8.0607.003H3.3619a2.9164,2.9164,0,0,0-1.548.3143A2.9136,2.9136,0,0,1,3.3665,0H3.0483a3.0483,3.0483,0,0,0-.0026,6.0966h1.83v4.0172a3.1164,3.1164,0,1,0,6.2328,0V7.4585h1.8323a3.0483,3.0483,0,0,0,.0349-6.0965ZM9.8566,2.3937a1.9968,1.9968,0,0,1,.119.6577h.0027v.0017A2.0167,2.0167,0,0,1,7.9618,5.0652H6.129a1.9713,1.9713,0,0,1,.3936-1.9978l.0011-.0011a.9274.9274,0,0,1,.0715-.0755A.533.533,0,0,1,6.6377,2.95,1.7642,1.7642,0,0,1,6.82,2.7945c.0521-.0385.1056-.0756.1606-.1085.0274-.0179.0563-.0343.0851-.0494a.8569.8569,0,0,1,.0865-.044c.059-.0288.12-.0535.1813-.0769a.8969.8969,0,0,1,.0946-.0316.8208.8208,0,0,1,.0948-.0273,1.2107,1.2107,0,0,1,.1221-.0276,2.0852,2.0852,0,0,1,.383-.0356Zm-3.44.7933c.0349-.0366.0632-.0794.1-.1138L6.52,3.07C6.4822,3.1052,6.4527,3.1491,6.4166,3.187Zm1.6112,3.24a2.004,2.004,0,0,1-1.102-.3306H7.747A2.5224,2.5224,0,0,0,9.9783,4.7379V6.4272Zm.1713,1.0269A2.5386,2.5386,0,0,1,7.7642,7.41a2.5289,2.5289,0,0,0,.4349.0441ZM3.1517,5.0652v.0014a2.0066,2.0066,0,0,1-1.5039-.6741c-.0158-.0146-.0274-.0333-.0428-.0483a2.012,2.012,0,0,1,1.5422-3.31h4.81a2.0046,2.0046,0,0,1,1.0958.3271H7.924A3.0264,3.0264,0,0,0,6.4524,1.74c-.0358.02-.0728.0412-.1071.0631a3.0473,3.0473,0,0,0-.5752.45c-.0577.0577-.1125.118-.1647.18a2.9886,2.9886,0,0,0-.3571.5175c-.0232.0425-.0465.0864-.0672.13a2.9473,2.9473,0,0,0-.24.7043c-.0082.0385-.015.0783-.0218.1167-.0139.0811-.0248.1634-.0316.2471-.0028.0344-.0056.0687-.0069.1043q-.0042.0722-.0042.1442V4.41l.0017.0172L4.8764,4.41v.655ZM9.9783,8.3014V9.9169c0,.0217-.0029.0429-.0034.0646a1.9845,1.9845,0,0,1-3.968-.0646V6.7792c-.0364-.03-.0638-.0684-.0988-.1a3.0244,3.0244,0,0,0,2.0159.7783H9.9783Zm2.86-1.8729V6.4272h-1.729V3.0514a3.0452,3.0452,0,0,0-.0754-.6577h1.8038a2.0163,2.0163,0,0,1,1.5046,3.3606,2.5292,2.5292,0,0,0,.1867-.21,2.5373,2.5373,0,0,1-.1867.2106,2.0069,2.0069,0,0,1-1.5043.6737Z" transform="translate(0.0013 0.0079)" fill="url(#linear-gradient)"/></svg>